<svg xmlns="http://www.w3.org/2000/svg" viewBox="0 0 128 128" role="img" aria-label="Discord inspired enemy logo">
  <defs>
    <filter id="shadow" x="-20%" y="-20%" width="140%" height="140%">
      <feDropShadow dx="0" dy="5" stdDeviation="5" flood-color="#000" flood-opacity="0.4"/>
    </filter>
  </defs>
  <circle cx="64" cy="64" r="58" fill="#5865f2" filter="url(#shadow)"/>
  <path d="M38 45c17-8 35-8 52 0 7 11 10 23 8 36-9 7-18 11-28 12l-4-8c5-1 10-3 14-6-11 5-22 7-33 3l-5 11c-10-1-19-5-28-12-2-13 1-25 8-36l13-5 3 5z" fill="#fff"/>
  <circle cx="50" cy="66" r="7" fill="#5865f2"/>
  <circle cx="78" cy="66" r="7" fill="#5865f2"/>
  <path d="M45 80c12 6 26 6 38 0" fill="none" stroke="#5865f2" stroke-width="5" stroke-linecap="round"/>
</svg>
