<svg xmlns="http://www.w3.org/2000/svg" viewBox="0 0 128 128" role="img" aria-label="TikTok inspired enemy logo">
  <defs>
    <filter id="shadow" x="-20%" y="-20%" width="140%" height="140%">
      <feDropShadow dx="0" dy="5" stdDeviation="5" flood-color="#000" flood-opacity="0.45"/>
    </filter>
  </defs>
  <circle cx="64" cy="64" r="58" fill="#050508" filter="url(#shadow)"/>
  <path d="M69 22h16c2 16 10 25 25 29v17c-10-.4-19-3.6-27-9.7v31.4c0 20.4-13.7 34.3-34.1 34.3-17.6 0-30.9-11.4-30.9-27.1 0-16.1 12.6-27.9 30.3-27.9 2.8 0 5.2.3 7.4 1v18.5c-2.2-.9-4.4-1.3-6.7-1.3-7.5 0-12.3 4.1-12.3 10.2 0 6.2 4.7 10.1 11.8 10.1 7.4 0 12.5-4.4 12.5-13.6V22z" fill="#00f2ea"/>
  <path d="M76 22h12c2 15 9 23 22 27v11c-10-.6-20-5.4-27-13v43c0 20-13 32-32 32-10 0-19-4-25-10 5 3 11 5 18 5 20 0 32-12 32-32V22z" fill="#ff0050" opacity="0.85"/>
  <path d="M68 22h11v66c0 17-10 27-27 27-11 0-21-6-24-15 5 5 12 8 20 8 13 0 20-8 20-20V22z" fill="#ffffff"/>
</svg>
