<svg xmlns="http://www.w3.org/2000/svg" viewBox="0 0 128 128" role="img" aria-label="WhatsApp logo">
  <rect width="128" height="128" rx="28" fill="#0b1f14"/>
  <circle cx="64" cy="62" r="43" fill="#25D366"/>
  <path d="M38 100l7-22c-5-7-7-15-5-24 4-20 24-34 45-30 22 4 36 25 32 46-4 21-25 36-46 31-7-1-13-4-18-8z" fill="#25D366" stroke="#fff" stroke-width="5" stroke-linejoin="round"/>
  <path d="M50 45c-3 4-4 9-1 16 4 10 15 20 26 24 8 3 14 1 18-3 2-2 3-7 1-9l-12-6c-2-1-4 0-5 2l-3 4c-7-3-13-8-17-16l4-3c2-1 2-4 1-6l-5-11c-2-2-5-2-7 0z" fill="#fff"/>
</svg>
